<svg xmlns="http://www.w3.org/2000/svg" width="172.26" height="57.07" viewBox="0 0 172.26 57.07">
	<style type="text/css">
		.st2{fill:#e55645;}
		.st1{fill:#f06351;}
		.st4{fill:#111111;}
		.st3{fill:#000000;}
		.st5{fill:#444444;}
		.st0{fill:#fdc305;}
	</style>
	<path class="st0" d="M58.15,25.5C57.72,25.93 56.8,26.22 56.66,24.93C56.52,23.63 56.47,22.72 56.47,22.72C56.47,22.72 54.55,19.31 53.83,19.27C53.11,19.22 48.02,22.72 46.68,24.21C45.52,25.49 45.29,25.41 45.29,27.66C45.29,29.37 45.51,35.79 45.39,40.71C45.39,40.71 43.23,41.29 37.28,42.87C31.33,44.46 29.5,44.65 29.5,44.65L28.5,38.84C28.5,38.84 28.49,38.84 28.49,38.84C28.49,38.84 28.47,38.84 28.45,38.83C28.45,38.83 28.45,38.83 28.45,38.83C28.44,38.83 28.43,38.83 28.42,38.83C28.4,38.83 28.39,38.82 28.37,38.82L28.37,38.82L25.81,25.69C25.81,25.69 22.02,24.25 20.63,23.87C19.23,23.49 18.37,23.2 16.6,24.5C14.82,25.79 14.87,28.33 14.87,28.33C14.87,28.33 15.3,29.29 15.35,29.77C15.4,30.25 14.15,30.2 13.33,30.2C12.52,30.2 12.42,28.77 13.05,27.09C13.67,25.41 14.96,23.39 14.96,23.39C14.96,23.39 16.16,21.14 17.03,20.51C17.03,20.51 17.17,20.18 18.28,20.27C19.38,20.37 25.52,20.7 25.52,20.7L25.57,18.44C32.24,17.53 39,17.07 45.73,17.11C45.72,17.71 45.7,18.32 45.67,18.93C45.67,18.93 50.04,16.91 53.78,16.96C53.78,16.96 54.21,16.91 54.55,17.35C54.88,17.78 56.95,20.32 57.19,20.7C57.43,21.09 58.39,22.43 59.01,23.73C59.01,23.73 58.58,25.07 58.15,25.5M59.62,21.73C54.19,8.74 39.26,2.61 26.26,8.04C13.27,13.46 7.14,28.4 12.57,41.39C16.14,49.94 23.82,55.52 32.36,56.79C31.78,54.71 31.2,52.41 30.68,49.96C32.17,50.95 33.75,51.76 35.42,52.51C35.42,52.51 35.41,52.51 35.4,52.52C35.4,52.52 35.52,54.66 35.68,57.06C37.45,57.09 39.23,56.94 41.01,56.59C40.96,56.43 40.96,56.18 41.02,55.83C41.3,53.97 42.11,50.61 42.26,48.45C43.38,47.39 44.39,46.14 45.15,44.75C45.15,44.77 45.15,44.78 45.14,44.79C45.13,44.93 45.11,45.08 45.09,45.22C44.54,49.47 43.39,54 42.7,55.25C42.46,55.69 42.15,56.11 41.87,56.4C43.23,56.08 44.59,55.65 45.92,55.09C58.91,49.66 65.05,34.73 59.62,21.73"/>
	<path class="st1" d="M56.21,19.42C56.68,20.02 57.09,20.55 57.19,20.71C57.43,21.09 58.39,22.43 59.01,23.73C59.01,23.73 58.58,25.07 58.15,25.5C57.72,25.94 56.8,26.22 56.66,24.93C56.52,23.63 56.47,22.72 56.47,22.72C56.47,22.72 54.55,19.31 53.83,19.27C53.11,19.22 48.02,22.72 46.68,24.21C45.52,25.49 45.29,25.41 45.29,27.66C45.29,29.16 45.46,34.28 45.42,38.84C47.22,39.05 49.86,39.55 50.66,40.71C50.66,40.71 50.37,33.56 58.44,37.31C58.44,37.31 58.72,27.57 69.85,30.06C69.85,30.06 64.21,23.13 56.21,19.42"/>
	<path class="st1" d="M45.73,17.11C45.88,8.63 44.33,0.65 44.33,0.65C44.33,0.65 44.19,-0.64 43.47,0.41C42.75,1.46 42.27,4.34 42.27,4.34C34.83,3.91 29.5,4.68 29.5,4.68C28.69,1.94 27.3,0.74 26.62,1.03C25.95,1.32 25.9,4.34 25.9,4.34L25.57,18.44C32.24,17.53 39.01,17.07 45.73,17.11"/>
	<path class="st2" d="M45.15,44.76C45.27,43.69 45.35,42.28 45.39,40.71C45.39,40.71 43.23,41.29 37.28,42.87C31.33,44.46 29.5,44.65 29.5,44.65L30.61,49.64C30.63,49.75 30.65,49.85 30.68,49.96C32.17,50.95 33.75,51.76 35.42,52.51C39.78,50.35 42.27,48.39 42.27,48.39C42.26,48.41 42.26,48.43 42.26,48.45C43.38,47.39 44.39,46.14 45.15,44.76"/>
	<path class="st3" d="M31.85,13.99C31.81,13.9 32.88,14.67 33.26,14.91C33.64,15.15 33.87,15.33 33.87,15.5C33.87,15.67 33.61,15.83 33.25,15.83C32.89,15.83 32.33,15.71 32.29,15.57C32.29,15.57 32.89,15.55 33.22,15.55L33.51,15.55C33.51,15.55 32.12,14.52 31.85,13.99"/>
	<path class="st3" d="M39.32,14.1C39.32,14.1 38.28,15.37 38.24,15.43C38.2,15.49 38.07,15.77 38.42,15.73C38.77,15.68 39.53,15.5 39.64,15.44C39.75,15.38 39.71,15.25 39.53,15.27C39.32,15.29 38.84,15.32 38.54,15.37L39.38,14.11C39.38,14.11 39.41,14 39.32,14.1"/>
	<path class="st3" d="M36.19,20.19C36.19,20.19 37,19.84 37.28,19.18C37.56,18.52 37.32,18.27 36.84,18.2C36.36,18.14 35.5,18.17 35.11,18.54C34.71,18.91 34.76,19.27 35.05,19.5C35.34,19.72 35.9,20.1 36.19,20.19"/>
	<path class="st1" d="M35.79,21.44C35.79,21.44 35.61,21.81 35.33,22.03C35.09,22.23 34.76,22.4 34.31,22.42C33.68,22.45 33.26,22.25 32.86,21.97C32.66,21.83 32.47,21.72 32.33,21.53C32.17,21.35 31.97,21.28 31.97,21.28C31.97,21.28 32.72,25.38 34.54,26.03C36.36,26.67 36.68,25.28 36.74,24.89C36.79,24.57 36.74,22.81 35.92,21.67C35.9,21.37 35.89,21.57 35.79,21.44"/>
	<path class="st3" d="M34.15,22.57L34.13,22.57C32.84,22.56 31.84,21.21 31.8,21.15C31.75,21.09 31.77,21 31.83,20.95C31.9,20.91 31.99,20.92 32.03,20.99C32.04,21 32.99,22.28 34.14,22.28L34.15,22.28C34.73,22.28 35.28,21.95 35.78,21.3L35.92,21.11L36.02,21.32C36.02,21.33 36.39,22.07 37.01,22.11C37.5,22.14 38.06,21.7 38.62,20.84C38.67,20.77 38.76,20.75 38.82,20.79C38.89,20.84 38.91,20.93 38.86,20.99C38.23,21.97 37.6,22.44 36.99,22.4C36.43,22.36 36.05,21.91 35.87,21.64C35.35,22.26 34.77,22.57 34.15,22.57"/>
	<path class="st4" d="M33.69,33.02L37.81,27.63L37,31.63L38.96,30.82L34.85,36.2L35.65,32.2ZM41.05,29.21L37.93,30.51L39.07,24.9L31.61,34.62L34.73,33.32L33.58,38.93Z"/>
	<path class="st1" d="M45.67,18.91C45.67,18.91 43.13,21.16 40.61,24.1C38.09,27.05 35.32,28.97 35.32,28.97C35.1,28.45 33.7,27.47 33.7,27.47C33.7,27.47 30.57,25.33 28.52,23.64C27.34,22.68 26.17,21.48 25.39,20.63C25.1,20.62 24.33,20.58 23.39,20.53C28.08,27.49 35.36,29.33 35.36,29.33C36.22,29.18 38.63,27.47 40.43,26.06C42.23,24.66 45.18,21.54 46.37,20.17C46.97,19.48 47.31,18.75 47.5,18.2C46.39,18.59 45.67,18.91 45.67,18.91"/>
	<path class="st1" d="M25.81,25.69C25.81,25.69 22.02,24.26 20.63,23.87C19.24,23.49 18.37,23.2 16.6,24.5C14.82,25.79 14.87,28.33 14.87,28.33C14.87,28.33 15.3,29.29 15.35,29.77C15.4,30.25 14.15,30.2 13.33,30.2C12.52,30.2 12.42,28.77 13.05,27.09C13.67,25.41 14.97,23.39 14.97,23.39C9.54,26.22 0,32.75 0,32.75C0,32.75 2.92,32.46 8.15,32.99C13.38,33.52 13.09,37.64 13.09,37.64C13.09,37.64 16.6,36.68 18.71,36.54C20.82,36.39 20.96,38.65 20.96,38.65L21.49,42.49C21.49,42.49 21.97,41.86 24.13,40.14C25.98,38.65 28,38.78 28.5,38.84Z"/>
	<path class="st4" d="M89.55,37.12C88.89,36.26 88.56,35.03 88.56,33.43L88.56,28.09C88.56,26.44 88.89,25.2 89.54,24.36C90.2,23.52 91.33,23.1 92.92,23.1C94.44,23.1 95.52,23.47 96.15,24.21C96.78,24.96 97.1,26.02 97.1,27.41L97.1,28.66L94.15,28.66L94.15,27.28C94.15,26.84 94.13,26.48 94.09,26.21C94.05,25.94 93.94,25.72 93.76,25.54C93.58,25.36 93.31,25.27 92.94,25.27C92.39,25.27 92.03,25.45 91.87,25.81C91.71,26.16 91.63,26.68 91.63,27.37L91.63,34.14C91.63,34.84 91.73,35.36 91.91,35.71C92.09,36.05 92.44,36.22 92.94,36.22C93.46,36.22 93.79,36.05 93.93,35.7C94.08,35.35 94.15,34.83 94.15,34.14L94.15,32.69L97.1,32.69L97.1,33.92C97.1,35.35 96.79,36.45 96.16,37.23C95.53,38.01 94.45,38.39 92.92,38.39C91.34,38.39 90.22,37.97 89.55,37.12"/>
	<path class="st4" d="M103.71,33.04L102.8,27.04L101.92,33.04ZM101.11,23.29L104.48,23.29L107.35,38.19L104.55,38.19L104,34.92L101.64,34.92L101.07,38.19L98.22,38.19Z"/>
	<path class="st4" d="M109.5,25.53L107.2,25.53L107.2,23.29L114.82,23.29L114.82,25.53L112.56,25.53L112.56,38.19L109.5,38.19Z"/>
	<path class="st5" d="M120.8,23.29L126.58,23.29L126.58,24.83L122.88,24.83L122.88,29.76L125.88,29.76L125.88,31.24L122.88,31.24L122.88,36.7L126.62,36.7L126.62,38.19L120.8,38.19Z"/>
	<path class="st5" d="M128.29,23.29L129.71,23.29L133.94,33.19L133.94,23.29L135.67,23.29L135.67,38.19L134.35,38.19L130.06,28.01L130.06,38.19L128.29,38.19Z"/>
	<path class="st5" d="M138.01,23.29L143.79,23.29L143.79,24.83L140.09,24.83L140.09,29.76L143.09,29.76L143.09,31.24L140.09,31.24L140.09,36.7L143.82,36.7L143.82,38.19L138.01,38.19Z"/>
	<path class="st5" d="M148.37,29.71C149.27,29.71 149.91,29.53 150.29,29.17C150.68,28.82 150.87,28.17 150.87,27.24C150.87,26.63 150.81,26.15 150.67,25.8C150.54,25.45 150.3,25.19 149.95,25.02C149.61,24.86 149.13,24.78 148.5,24.78L147.58,24.78L147.58,29.71ZM145.5,23.29L148.5,23.29C150.01,23.29 151.12,23.6 151.82,24.21C152.53,24.83 152.88,25.84 152.88,27.24C152.88,29.16 152.27,30.32 151.04,30.72L153.16,38.19L151.15,38.19L149.2,31.2L147.58,31.2L147.58,38.19L145.5,38.19Z"/>
	<path class="st5" d="M155.68,37.1C155.08,36.24 154.78,34.98 154.78,33.3L154.78,28.31C154.78,27.16 154.9,26.21 155.13,25.47C155.37,24.72 155.78,24.15 156.37,23.76C156.95,23.36 157.75,23.16 158.77,23.16C160.14,23.16 161.13,23.51 161.74,24.21C162.35,24.91 162.65,26 162.65,27.5L162.65,28.05L160.7,28.05L160.7,27.59C160.7,26.88 160.66,26.33 160.57,25.95C160.49,25.56 160.31,25.27 160.03,25.07C159.75,24.88 159.35,24.78 158.81,24.78C158.23,24.78 157.8,24.91 157.52,25.17C157.24,25.44 157.05,25.79 156.98,26.23C156.89,26.67 156.86,27.26 156.86,28L156.86,33.52C156.86,34.66 156.99,35.48 157.27,35.98C157.55,36.47 158.08,36.72 158.86,36.72C159.63,36.72 160.17,36.45 160.45,35.91C160.74,35.37 160.89,34.51 160.89,33.32L160.89,32.29L158.99,32.29L158.99,30.81L162.76,30.81L162.76,38.19L161.46,38.19L161.25,36.48C160.79,37.74 159.9,38.38 158.6,38.38C157.25,38.38 156.28,37.95 155.68,37.1"/>
	<path class="st5" d="M167.07,32.93L163.85,23.29L165.78,23.29L168.06,30.48L170.31,23.29L172.26,23.29L169.06,32.93L169.06,38.19L167.07,38.19Z"/>
</svg>