<svg xmlns="http://www.w3.org/2000/svg" width="33.32" height="37.61" viewBox="0 0 33.32 37.61">
	<style type="text/css">
		.st2{fill:#000000;}
		.st1{fill:#f06351;}
		.st0{fill:#fdc305;}
	</style>
	<path class="st0" d="M6.07,20.72L6.12,18.45C12.79,17.54 19.56,17.08 26.28,17.12C26.27,17.73 26.25,18.33 26.23,18.94C26.23,18.94 29.15,17.59 32.26,17.13C29.89,10.81 23.8,6.3 16.65,6.3C8.33,6.3 1.43,12.41 0.18,20.38C2.35,20.52 6.07,20.72 6.07,20.72"/>
	<path class="st0" d="M27.23,24.22C26.07,25.51 25.84,25.42 25.84,27.68C25.84,28.59 25.87,32.58 25.88,36.85C30.36,33.86 33.32,28.76 33.32,22.97C33.32,21.92 33.22,20.89 33.03,19.89C31.22,20.96 28.22,23.13 27.23,24.22"/>
	<path class="st0" d="M6.35,25.71C6.35,25.71 2.56,24.27 1.17,23.89C0.74,23.77 0.36,23.66 0,23.6C0.22,29.65 3.67,34.88 8.67,37.61Z"/>
	<path class="st1" d="M26.29,17.12C26.43,8.64 24.89,0.65 24.89,0.65C24.89,0.65 24.74,-0.64 24.02,0.41C23.3,1.47 22.82,4.35 22.82,4.35C15.38,3.91 10.06,4.68 10.06,4.68C9.24,1.95 7.85,0.74 7.18,1.03C6.5,1.32 6.46,4.35 6.46,4.35L6.12,18.45C12.79,17.54 19.56,17.08 26.29,17.12"/>
	<path class="st2" d="M12.41,13.99C12.36,13.9 13.43,14.67 13.81,14.91C14.2,15.15 14.42,15.34 14.42,15.51C14.42,15.67 14.16,15.84 13.8,15.84C13.44,15.84 12.89,15.72 12.84,15.58C12.84,15.58 13.44,15.55 13.78,15.55L14.06,15.55C14.06,15.55 12.67,14.52 12.41,13.99"/>
	<path class="st2" d="M19.88,14.11C19.88,14.11 18.83,15.38 18.79,15.44C18.76,15.5 18.63,15.78 18.98,15.73C19.33,15.68 20.09,15.51 20.2,15.45C20.31,15.39 20.27,15.25 20.08,15.27C19.88,15.3 19.4,15.32 19.1,15.38L19.94,14.12C19.94,14.12 19.96,14 19.88,14.11"/>
	<path class="st2" d="M16.75,20.2C16.75,20.2 17.56,19.85 17.84,19.19C18.12,18.53 17.87,18.28 17.4,18.21C16.92,18.15 16.06,18.18 15.66,18.55C15.26,18.92 15.32,19.28 15.61,19.5C15.89,19.73 16.45,20.11 16.75,20.2"/>
	<path class="st1" d="M16.34,21.45C16.34,21.45 16.16,21.82 15.89,22.04C15.64,22.24 15.32,22.41 14.87,22.43C14.23,22.46 13.81,22.26 13.42,21.98C13.21,21.84 13.02,21.73 12.88,21.54C12.73,21.36 12.53,21.29 12.53,21.29C12.53,21.29 13.27,25.39 15.09,26.04C16.91,26.68 17.24,25.29 17.29,24.9C17.34,24.58 17.29,22.82 16.47,21.68C16.46,21.38 16.44,21.58 16.34,21.45"/>
	<path class="st2" d="M14.7,22.58L14.69,22.58C13.39,22.57 12.4,21.22 12.35,21.16C12.31,21.1 12.32,21.01 12.39,20.96C12.45,20.91 12.54,20.93 12.59,20.99C12.6,21.01 13.54,22.28 14.69,22.29L14.7,22.29C15.29,22.29 15.83,21.96 16.33,21.3L16.47,21.11L16.57,21.33C16.58,21.33 16.95,22.08 17.56,22.12C18.06,22.15 18.62,21.71 19.18,20.84C19.22,20.78 19.31,20.76 19.38,20.8C19.44,20.84 19.46,20.93 19.42,21C18.79,21.97 18.16,22.45 17.54,22.41C16.98,22.37 16.6,21.91 16.43,21.64C15.91,22.27 15.33,22.58 14.7,22.58"/>
	<path class="st1" d="M26.23,18.92C26.23,18.92 23.69,21.16 21.17,24.11C18.65,27.06 15.88,28.99 15.88,28.99C15.66,28.46 14.26,27.48 14.26,27.48C14.26,27.48 11.12,25.34 9.07,23.65C7.89,22.69 6.73,21.49 5.95,20.64C5.65,20.63 4.88,20.59 3.94,20.53C8.63,27.5 15.91,29.34 15.91,29.34C16.78,29.2 19.19,27.48 20.99,26.07C22.79,24.67 25.74,21.55 26.93,20.18C27.53,19.49 27.87,18.76 28.06,18.21C26.95,18.59 26.23,18.92 26.23,18.92"/>
</svg>