<svg xmlns="http://www.w3.org/2000/svg" width="19.95" height="19.92" viewBox="0 0 19.95 19.92">
	<style type="text/css">
		.st0{fill:#000000;}
	</style>
	<path class="st0" d="M17.9,9.4L9.4,9.4L9.4,10.6L17.9,10.6L15.8,12.7L16.7,13.6L19.8,10.5C20,10.3 20,9.9 19.8,9.6L16.7,6.5L15.8,7.4Z"/>
	<path class="st0" d="M8.1,19.4L8.1,13.2C8.1,12.9 7.8,12.6 7.5,12.6L4.4,12.6L3.1,12.6C3.1,13.3 3.7,13.8 4.3,13.8L6.8,13.8L6.8,18.8L3.1,18.8C2.1,18.9 1.3,18.1 1.2,17.1L1.2,16.9L1.2,3.1C1.2,2.1 2,1.3 2.9,1.3L3.1,1.3L6.8,1.3L6.8,6.3L4.4,6.3C3.7,6.3 3.2,6.9 3.2,7.5L7.6,7.5C7.9,7.5 8.2,7.2 8.2,6.9L8.2,0.6C8.1,0.3 7.8,0 7.5,0L3.1,0C1.5,-0.09 0.1,1.2 0,2.9L0,3.1L0,16.8C-0.09,18.5 1.2,19.9 2.9,19.9L3.1,19.9L7.5,19.9C7.8,20 8.1,19.7 8.1,19.4"/>
</svg>