<svg xmlns="http://www.w3.org/2000/svg" width="70" height="97" viewBox="0 0 70 97">
	<style type="text/css">
		.st0{fill:#1a150f;}
	</style>
	<path class="st0" d="M54.84,0L54.46,0C53.78,0.35 53.37,0.94 53.02,1.59C52.44,2.68 52.02,3.84 51.7,5.03C51.49,5.84 51.05,6.23 50.22,6.37C47.89,6.78 46.18,8.1 44.99,10.12C44.25,11.37 43.67,12.7 43.15,14.06C41.72,17.74 40.63,21.54 39.3,25.26C38.66,27.03 38.64,27.01 36.73,27.03C34.47,27.05 34.63,26.67 34.59,29.17C34.58,29.96 34.83,30.36 35.67,30.32C35.93,30.31 36.32,30.19 36.42,30.54C36.5,30.83 36.18,31.03 35.99,31.23C34.8,32.49 33.3,33.22 31.65,33.66C29.75,34.17 27.82,34.57 25.96,35.19C21.22,36.79 16.82,39.01 13.41,42.77C11.32,45.06 9.89,47.79 8.67,50.61C4.95,59.21 3.21,68.32 1.83,77.51C1.18,81.81 0.73,86.14 0.37,90.48C0.19,92.65 -0.02,94.81 0,96.99L33.32,96.99C33.44,96.53 33.25,96.12 33.09,95.71C32.41,93.96 31.02,93.05 29.26,92.64C28.57,92.48 28.48,92.27 28.91,91.73C29.64,90.8 30.13,89.73 30.5,88.62C32.14,83.81 32.77,78.8 33.55,73.82C34.16,70.02 35.05,66.35 37.03,62.99C38.49,60.52 40.33,58.37 42.63,56.62C43.46,55.99 43.48,55.99 43.63,57.06C43.72,57.78 43.75,58.51 43.79,59.23C44.08,63.96 44.05,68.68 43.62,73.4C43.28,77.08 43.14,80.75 43.46,84.44C43.83,88.7 44.62,92.87 45.7,96.99L59.03,96.99C58.71,94.8 56.92,92.97 54.79,92.55C53.5,92.3 52.26,92.47 51.02,92.76C50.42,92.89 50.17,92.79 50.12,92.11C49.73,86.79 50,81.5 51.08,76.29C52.34,70.26 53.52,64.22 54.15,58.1C54.41,55.56 55.18,53.28 56.42,51.08C57.62,48.96 58.66,46.75 59.83,44.62C60.76,42.93 60.93,41.22 60.24,39.43C59.97,38.72 59.71,38.01 59.38,37.33C58.42,35.37 57.41,33.44 56.47,31.48C55.98,30.46 56.08,30.35 57.18,30.33C58.81,30.29 58.81,30.29 58.83,28.69C58.84,28.47 58.83,28.24 58.83,28.02C58.85,27.34 58.58,26.95 57.82,27.01C57.31,27.05 56.8,27.01 56.3,27.02C55.6,27.03 55.4,26.73 55.57,26.07C56.15,23.79 58.35,21.92 60.71,21.63C62.95,21.36 65.14,21.67 67.32,22.06C67.97,22.18 68.33,22.03 68.57,21.42C68.97,20.42 69.42,19.45 69.86,18.47C70.05,18.06 70.06,17.7 69.77,17.32C66.59,13.22 63.13,9.42 58.4,7.02C57.9,6.77 57.63,6.44 57.51,5.89C57.21,4.47 56.86,3.06 56.24,1.73C55.92,1.04 55.55,0.39 54.84,0"/>
</svg>