<svg xmlns="http://www.w3.org/2000/svg" width="134.07" height="56.15" viewBox="0 0 134.07 56.15">
	<style type="text/css">
		.st0{fill:#000000;}
	</style>
	<path class="st0" d="M123.11,5.75C124.31,3.85 125.81,2.35 127.61,1.15C128.61,0.45 129.21,0.45 129.81,1.75C130.61,3.65 131.31,5.65 130.71,7.75C130.51,8.55 130.61,9.15 131.11,9.85C131.71,10.65 132.21,11.45 132.71,12.15C134.01,14.05 134.51,16.05 133.61,18.35C133.21,19.35 133.21,20.35 133.41,21.45C133.61,22.45 133.61,23.45 133.41,24.45C133.11,26.05 132.31,27.15 130.71,27.65C129.41,27.95 128.31,28.55 127.51,29.65C127.31,29.95 127.01,30.15 126.61,30.15C125.41,30.35 122.41,27.65 122.41,26.45L122.41,25.85C122.51,22.25 122.31,21.95 119.01,20.45C118.31,20.15 117.71,19.85 117.21,19.25C116.61,18.45 115.81,18.55 114.91,18.85C114.11,19.25 113.51,19.75 113.61,20.75C113.91,23.15 114.01,25.55 113.91,28.05C113.91,28.35 114.01,28.65 114.11,28.85C117.21,33.35 118.41,38.65 119.91,43.75C121.11,47.65 123.31,49.75 127.31,50.05C127.91,50.05 128.61,50.25 129.21,50.35C131.01,50.65 132.11,51.85 132.61,53.55C133.31,55.65 132.91,56.15 130.81,56.15L124.31,56.15C123.41,56.15 122.71,55.95 122.01,55.35C121.01,54.35 119.81,53.95 118.61,53.35C117.31,52.75 116.01,52.05 115.21,50.75C114.11,49.05 112.61,47.65 111.21,46.25C108.41,43.35 105.41,40.55 102.81,37.55C100.91,35.35 99.61,32.95 99.61,29.95C99.61,29.05 99.41,28.65 98.41,29.05C98.11,29.25 97.71,29.35 97.41,29.35C94.61,29.35 93.21,31.05 92.21,33.55C91.31,35.65 90.11,37.65 89.01,39.75C88.51,40.85 88.01,42.35 88.01,43.95C88.01,46.35 88.61,47.15 90.81,47.95C92.21,48.45 93.51,48.95 94.21,50.35C95.01,51.95 94.81,52.35 93.11,52.45L86.31,52.45C85.41,52.45 84.81,52.15 84.41,51.35C83.81,50.35 83.21,49.35 82.61,48.35C81.61,46.65 81.21,44.95 81.91,42.95C82.51,41.25 82.21,39.35 82.01,37.65C81.61,35.05 82.01,32.75 83.71,30.65C84.31,29.95 84.31,29.65 83.31,29.45C79.21,28.65 75.31,27.15 71.51,25.35C71.51,25.35 71.41,25.35 71.41,25.25C68.21,24.05 67.61,24.25 66.71,27.55C65.91,30.35 65.11,33.15 64.51,36.05C63.81,39.25 64.61,42.25 65.61,45.25C66.01,46.45 67.21,46.35 68.11,46.65C70.11,47.25 71.81,48.05 72.61,50.15C73.31,51.75 73.21,51.95 71.51,51.95C69.81,51.95 68.11,51.85 66.31,51.95C64.71,52.05 63.51,51.45 62.11,50.55C57.31,47.35 55.91,42.45 55.51,37.15C55.31,33.85 53.51,31.25 51.41,28.75C51.01,28.25 50.61,28.05 50.01,28.45C47.91,29.75 45.51,30.55 43.31,31.45C38.51,33.25 34.31,36.05 31.11,40.25C29.91,41.75 29.21,43.45 28.91,45.35C28.61,47.15 29.11,47.95 30.91,48.45C32.81,49.05 33.61,49.95 33.81,51.85C33.91,52.65 33.61,53.05 32.81,53.05L24.71,53.05C24.11,53.05 23.71,52.65 23.41,52.25C22.11,50.65 21.51,48.75 21.51,46.75C21.41,43.25 21.81,39.85 22.41,36.45C22.81,34.35 23.81,32.65 25.81,31.65C31.71,28.85 34.81,23.55 37.61,18.05C38.21,16.95 37.71,16.75 36.71,16.85C33.81,17.15 31.31,18.45 29.01,20.05C26.01,22.15 23.31,24.65 20.71,27.15C17.81,29.85 14.51,31.75 10.41,32.05C3.11,32.45 -0.28,28.35 0.01,21.75C0.11,19.45 0.91,17.35 2.41,15.65C3.61,14.35 5.01,13.65 6.91,14.15C8.41,14.55 8.81,15.35 8.21,16.85C7.91,17.45 7.51,17.95 7.21,18.55C6.81,19.15 6.41,19.85 6.21,20.55C5.11,23.55 6.61,25.65 9.71,25.95C13.01,26.25 15.71,24.85 18.21,22.85C21.21,20.45 23.91,17.65 26.21,14.55C29.91,9.75 34.71,7.25 40.61,6.45C42.91,6.15 44.91,5.15 47.11,4.55C51.21,3.35 55.41,2.65 59.81,2.75C61.81,2.85 63.71,2.45 65.61,1.65C70.51,-0.34 75.61,-0.34 80.71,0.65C84.71,1.45 88.71,2.45 92.61,3.45C94.81,3.95 97.31,3.75 99.61,3.25C104.01,2.25 108.51,1.35 113.01,1.25C116.01,1.15 118.91,1.65 121.61,2.95C123.61,3.85 123.61,3.85 123.11,5.75"/>
</svg>