<svg xmlns="http://www.w3.org/2000/svg" width="100.5" height="18.08" viewBox="0 0 100.5 18.08">
	<style type="text/css">
		.st0{fill:#111111;}
	</style>
	<path class="st0" d="M1.22,16.57C0.4,15.57 0,14.12 0,12.22L0,5.88C0,3.94 0.4,2.47 1.21,1.48C2.02,0.49 3.4,0 5.35,0C7.22,0 8.54,0.44 9.32,1.32C10.1,2.2 10.49,3.45 10.49,5.08L10.49,6.6L6.63,6.6L6.63,4.84C6.63,4.16 6.56,3.64 6.41,3.27C6.26,2.91 5.91,2.73 5.35,2.73C4.79,2.73 4.43,2.92 4.25,3.31C4.07,3.69 3.99,4.22 3.99,4.9L3.99,13.18C3.99,13.87 4.08,14.4 4.26,14.77C4.45,15.14 4.81,15.32 5.35,15.32C5.9,15.32 6.25,15.14 6.4,14.77C6.55,14.4 6.63,13.87 6.63,13.18L6.63,11.33L10.49,11.33L10.49,12.85C10.49,14.5 10.1,15.78 9.32,16.7C8.54,17.62 7.22,18.08 5.35,18.08C3.41,18.08 2.03,17.58 1.22,16.57"/>
	<path class="st0" d="M18.41,11.78L17.46,4.92L16.51,11.78ZM15.19,0.23L19.69,0.23L23.02,17.82L19.38,17.82L18.78,14.11L16.16,14.11L15.54,17.82L11.82,17.82Z"/>
	<path class="st0" d="M25.75,3.12L23.06,3.12L23.06,0.23L32.38,0.23L32.38,3.12L29.72,3.12L29.72,17.82L25.75,17.82Z"/>
	<path class="st0" d="M39.53,0.23L46.45,0.23L46.45,2.06L42.02,2.06L42.02,7.88L45.61,7.88L45.61,9.61L42.02,9.61L42.02,16.06L46.49,16.06L46.49,17.82L39.53,17.82Z"/>
	<path class="st0" d="M48.48,0.23L50.18,0.23L55.25,11.92L55.25,0.23L57.33,0.23L57.33,17.82L55.74,17.82L50.6,5.81L50.6,17.82L48.48,17.82Z"/>
	<path class="st0" d="M59.81,0.23L66.73,0.23L66.73,2.06L62.3,2.06L62.3,7.88L65.89,7.88L65.89,9.61L62.3,9.61L62.3,16.06L66.77,16.06L66.77,17.82L59.81,17.82Z"/>
	<path class="st0" d="M72.2,7.81C73.28,7.81 74.04,7.6 74.51,7.18C74.97,6.76 75.2,6 75.2,4.9C75.2,4.18 75.12,3.61 74.96,3.2C74.8,2.79 74.51,2.48 74.1,2.29C73.69,2.09 73.11,1.99 72.36,1.99L71.26,1.99L71.26,7.81ZM68.76,0.23L72.36,0.23C74.17,0.23 75.49,0.6 76.34,1.33C77.18,2.06 77.61,3.25 77.61,4.9C77.61,7.16 76.87,8.53 75.4,9.01L77.93,17.82L75.53,17.82L73.2,9.57L71.26,9.57L71.26,17.82L68.76,17.82Z"/>
	<path class="st0" d="M80.81,16.53C80.09,15.52 79.73,14.03 79.73,12.05L79.73,6.16C79.73,4.8 79.87,3.68 80.16,2.81C80.44,1.93 80.94,1.26 81.63,0.79C82.33,0.32 83.29,0.08 84.51,0.08C86.16,0.08 87.34,0.5 88.07,1.32C88.8,2.14 89.16,3.44 89.16,5.21L89.16,5.86L86.83,5.86L86.83,5.32C86.83,4.48 86.77,3.83 86.67,3.37C86.57,2.92 86.35,2.57 86.02,2.34C85.69,2.11 85.2,1.99 84.55,1.99C83.86,1.99 83.35,2.15 83.01,2.46C82.67,2.77 82.46,3.19 82.36,3.71C82.27,4.23 82.22,4.92 82.22,5.79L82.22,12.31C82.22,13.65 82.38,14.62 82.71,15.2C83.04,15.79 83.68,16.08 84.62,16.08C85.55,16.08 86.18,15.76 86.53,15.13C86.87,14.49 87.05,13.47 87.05,12.07L87.05,10.85L84.78,10.85L84.78,9.11L89.29,9.11L89.29,17.82L87.73,17.82L87.49,15.8C86.93,17.29 85.87,18.04 84.31,18.04C82.7,18.04 81.53,17.53 80.81,16.53"/>
	<path class="st0" d="M94.28,11.61L90.42,0.23L92.73,0.23L95.47,8.72L98.16,0.23L100.5,0.23L96.66,11.61L96.66,17.82L94.28,17.82Z"/>
</svg>