<svg xmlns="http://www.w3.org/2000/svg" width="201.99" height="59.48" viewBox="0 0 201.99 59.48">
	<style type="text/css">
		.st2{fill:#e55645;}
		.st1{fill:#f06351;}
		.st4{fill:#111111;}
		.st3{fill:#000000;}
		.st5{fill:#444444;}
		.st0{fill:#fdc305;}
	</style>
	<path class="st0" d="M58.4,27.78C57.97,28.21 57.05,28.5 56.91,27.2C56.76,25.9 56.71,24.98 56.71,24.98C56.71,24.98 54.79,21.56 54.06,21.51C53.34,21.46 48.23,24.98 46.88,26.47C45.72,27.76 45.49,27.68 45.49,29.94C45.49,31.66 45.71,38.11 45.58,43.05C45.58,43.05 43.41,43.63 37.44,45.22C31.46,46.81 29.63,47 29.63,47L28.62,41.17L28.62,41.17C28.61,41.17 28.6,41.17 28.58,41.17C28.58,41.17 28.58,41.17 28.58,41.16C28.57,41.16 28.55,41.16 28.54,41.16C28.53,41.16 28.51,41.16 28.49,41.15L25.92,27.97C25.92,27.97 22.11,26.52 20.72,26.14C19.32,25.75 18.45,25.46 16.67,26.76C14.89,28.07 14.93,30.62 14.93,30.62C14.93,30.62 15.37,31.58 15.42,32.06C15.46,32.55 14.21,32.5 13.39,32.5C12.57,32.5 12.48,31.05 13.1,29.37C13.73,27.68 15.03,25.66 15.03,25.66C15.03,25.66 16.23,23.39 17.1,22.76C17.1,22.76 17.25,22.43 18.36,22.52C19.46,22.62 25.63,22.96 25.63,22.96L25.69,20.68C32.38,19.77 39.17,19.31 45.93,19.35C45.92,19.95 45.9,20.56 45.87,21.17C45.87,21.17 50.26,19.15 54.02,19.2C54.02,19.2 54.45,19.15 54.79,19.58C55.12,20.02 57.2,22.57 57.44,22.96C57.68,23.34 58.64,24.69 59.27,25.99C59.27,25.99 58.83,27.34 58.4,27.78M59.88,23.99C54.43,10.94 39.43,4.78 26.38,10.23C13.33,15.68 7.17,30.68 12.62,43.73C16.21,52.32 23.93,57.92 32.5,59.2C31.92,57.11 31.34,54.8 30.81,52.34C32.31,53.33 33.9,54.15 35.58,54.9C35.57,54.9 35.57,54.9 35.56,54.91C35.56,54.91 35.68,57.06 35.84,59.47C37.61,59.5 39.4,59.35 41.19,58.99C41.14,58.84 41.14,58.59 41.2,58.23C41.48,56.37 42.29,53 42.45,50.82C43.57,49.76 44.58,48.5 45.35,47.11C45.34,47.12 45.34,47.14 45.34,47.15C45.32,47.29 45.31,47.44 45.29,47.58C44.73,51.85 43.58,56.4 42.88,57.65C42.64,58.09 42.34,58.51 42.05,58.81C43.42,58.49 44.78,58.05 46.12,57.49C59.17,52.04 65.33,37.04 59.88,23.99"/>
	<path class="st1" d="M56.45,21.67C56.92,22.27 57.34,22.8 57.44,22.96C57.68,23.34 58.64,24.69 59.27,25.99C59.27,25.99 58.84,27.34 58.4,27.78C57.97,28.21 57.05,28.5 56.91,27.2C56.76,25.9 56.71,24.98 56.71,24.98C56.71,24.98 54.79,21.56 54.06,21.51C53.34,21.46 48.23,24.98 46.88,26.47C45.72,27.76 45.49,27.68 45.49,29.94C45.49,31.45 45.66,36.59 45.62,41.17C47.43,41.38 50.08,41.88 50.88,43.05C50.88,43.05 50.59,35.87 58.69,39.63C58.69,39.63 58.98,29.85 70.16,32.35C70.16,32.35 64.49,25.39 56.45,21.67"/>
	<path class="st1" d="M45.93,19.35C46.08,10.83 44.52,2.81 44.52,2.81C44.52,2.81 44.38,1.51 43.65,2.57C42.93,3.63 42.45,6.52 42.45,6.52C34.98,6.09 29.63,6.86 29.63,6.86C28.81,4.11 27.41,2.91 26.74,3.2C26.07,3.49 26.02,6.52 26.02,6.52L25.69,20.68C32.38,19.77 39.18,19.31 45.93,19.35"/>
	<path class="st2" d="M45.35,47.11C45.47,46.05 45.55,44.63 45.58,43.05C45.58,43.05 43.41,43.63 37.44,45.22C31.46,46.81 29.63,47 29.63,47L30.74,52.01C30.76,52.12 30.79,52.23 30.81,52.34C32.31,53.33 33.9,54.15 35.58,54.9C39.95,52.73 42.45,50.76 42.45,50.76C42.45,50.78 42.45,50.8 42.45,50.82C43.57,49.76 44.58,48.5 45.35,47.11"/>
	<path class="st3" d="M31.99,16.21C31.95,16.12 33.02,16.89 33.4,17.13C33.79,17.38 34.02,17.56 34.02,17.73C34.02,17.9 33.75,18.06 33.39,18.06C33.03,18.06 32.47,17.95 32.43,17.8C32.43,17.8 33.03,17.78 33.37,17.78L33.66,17.78C33.66,17.78 32.26,16.74 31.99,16.21"/>
	<path class="st3" d="M39.5,16.32C39.5,16.32 38.44,17.6 38.41,17.66C38.37,17.72 38.24,18 38.59,17.96C38.94,17.91 39.71,17.73 39.81,17.67C39.92,17.61 39.88,17.47 39.7,17.5C39.49,17.52 39.01,17.54 38.71,17.6L39.55,16.34C39.55,16.34 39.58,16.22 39.5,16.32"/>
	<path class="st3" d="M36.35,22.44C36.35,22.44 37.16,22.09 37.44,21.43C37.72,20.77 37.48,20.51 37,20.44C36.52,20.38 35.66,20.41 35.26,20.79C34.86,21.16 34.91,21.52 35.2,21.74C35.49,21.97 36.05,22.35 36.35,22.44"/>
	<path class="st1" d="M35.94,23.69C35.94,23.69 35.76,24.07 35.48,24.29C35.24,24.49 34.91,24.66 34.46,24.68C33.82,24.71 33.4,24.51 33.01,24.23C32.8,24.09 32.61,23.98 32.47,23.79C32.31,23.61 32.11,23.53 32.11,23.53C32.11,23.53 32.86,27.65 34.69,28.3C36.51,28.95 36.84,27.55 36.9,27.16C36.95,26.84 36.9,25.07 36.07,23.93C36.06,23.62 36.04,23.83 35.94,23.69"/>
	<path class="st3" d="M34.3,24.83L34.28,24.83C32.98,24.82 31.98,23.47 31.94,23.41C31.89,23.34 31.91,23.25 31.97,23.21C32.04,23.16 32.13,23.17 32.17,23.24C32.18,23.25 33.13,24.53 34.29,24.54L34.3,24.54C34.88,24.54 35.43,24.21 35.93,23.55L36.07,23.36L36.18,23.57C36.18,23.58 36.55,24.33 37.17,24.37C37.67,24.4 38.23,23.96 38.79,23.09C38.84,23.02 38.92,23 38.99,23.05C39.06,23.09 39.08,23.18 39.03,23.25C38.4,24.22 37.76,24.7 37.15,24.66C36.58,24.62 36.2,24.16 36.03,23.89C35.51,24.52 34.92,24.83 34.3,24.83"/>
	<path class="st0" d="M32.79,35.99C31.99,34.08 32.89,31.88 34.81,31.08C36.72,30.28 38.91,31.19 39.71,33.1C40.51,35.01 39.61,37.2 37.7,38C35.79,38.8 33.59,37.9 32.79,35.99"/>
	<path class="st4" d="M33.84,35.32L37.97,29.91L37.16,33.93L39.13,33.11L35,38.52L35.81,34.5ZM41.23,31.5L38.09,32.81L39.24,27.17L31.74,36.93L34.88,35.63L33.73,41.26Z"/>
	<path class="st4" d="M31.4,33.17C31.16,32.6 31.43,31.94 32,31.7C32.57,31.46 33.23,31.73 33.47,32.3C33.71,32.88 33.44,33.53 32.87,33.77C32.29,34.01 31.63,33.74 31.4,33.17"/>
	<path class="st4" d="M38.22,37.44C38.05,37.03 38.24,36.57 38.65,36.4C39.05,36.23 39.52,36.42 39.69,36.82C39.86,37.23 39.66,37.69 39.26,37.86C38.85,38.03 38.39,37.84 38.22,37.44"/>
	<path class="st4" d="M39.6,35.53C39.52,35.35 39.61,35.15 39.78,35.07C39.96,35 40.16,35.08 40.24,35.26C40.31,35.44 40.23,35.64 40.05,35.71C39.87,35.79 39.67,35.7 39.6,35.53"/>
	<path class="st1" d="M45.87,21.15C45.87,21.15 43.32,23.41 40.79,26.37C38.26,29.32 35.47,31.26 35.47,31.26C35.26,30.73 33.85,29.75 33.85,29.75C33.85,29.75 30.7,27.6 28.64,25.91C27.46,24.94 26.29,23.73 25.51,22.88C25.21,22.87 24.44,22.83 23.49,22.78C28.2,29.77 35.51,31.61 35.51,31.61C36.38,31.47 38.8,29.75 40.61,28.34C42.41,26.93 45.38,23.8 46.57,22.42C47.17,21.73 47.52,21 47.71,20.44C46.6,20.83 45.87,21.15 45.87,21.15"/>
	<path class="st0" d="M65.21,3.49L56.76,12.94L55.54,10.94L63.69,0Z"/>
	<path class="st0" d="M62.64,17.25L68.19,13.14L67.4,9.41L62,14.22Z"/>
	<path class="st0" d="M59.92,49.36L66.05,52.55L69.06,50.2L62.36,47.46Z"/>
	<path class="st0" d="M1.95,5.97L5.01,2.61L14.31,11.61L13.08,13.89Z"/>
	<path class="st0" d="M7.38,16.28L2.67,13.15L0.27,17.01L5.42,19.41Z"/>
	<path class="st0" d="M13.9,52.55L9.35,55.9L12.16,59.48L16.18,55.45Z"/>
	<path class="st1" d="M25.92,27.97C25.92,27.97 22.11,26.52 20.72,26.14C19.32,25.75 18.45,25.46 16.67,26.76C14.89,28.07 14.93,30.62 14.93,30.62C14.93,30.62 15.37,31.58 15.42,32.06C15.46,32.55 14.21,32.5 13.39,32.5C12.57,32.5 12.48,31.05 13.1,29.37C13.73,27.68 15.03,25.66 15.03,25.66C9.59,28.5 0,35.05 0,35.05C0,35.05 2.93,34.76 8.19,35.29C13.44,35.82 13.15,39.97 13.15,39.97C13.15,39.97 16.67,39 18.79,38.86C20.91,38.71 21.05,40.98 21.05,40.98L21.58,44.83C21.58,44.83 22.07,44.21 24.23,42.47C26.1,40.98 28.12,41.11 28.62,41.17C28.62,41.17 28.62,41.17 28.62,41.17Z"/>
	<path class="st4" d="M85.65,42.03C84.72,40.83 84.25,39.1 84.25,36.84L84.25,29.33C84.25,27.02 84.72,25.27 85.64,24.09C86.56,22.91 88.15,22.32 90.39,22.32C92.53,22.32 94.04,22.84 94.93,23.88C95.82,24.93 96.27,26.43 96.27,28.37L96.27,30.13L92.12,30.13L92.12,28.19C92.12,27.57 92.09,27.07 92.03,26.69C91.97,26.31 91.82,26 91.57,25.75C91.32,25.5 90.93,25.37 90.42,25.37C89.64,25.37 89.14,25.62 88.91,26.12C88.69,26.62 88.58,27.36 88.58,28.32L88.58,37.85C88.58,38.83 88.71,39.57 88.97,40.05C89.22,40.53 89.71,40.77 90.42,40.77C91.14,40.77 91.61,40.53 91.81,40.04C92.02,39.54 92.12,38.82 92.12,37.85L92.12,35.8L96.27,35.8L96.27,37.54C96.27,39.54 95.83,41.09 94.95,42.18C94.06,43.28 92.55,43.83 90.39,43.83C88.16,43.83 86.58,43.23 85.65,42.03"/>
	<path class="st4" d="M105.56,36.3L104.29,27.86L103.05,36.3ZM101.91,22.58L106.65,22.58L110.68,43.54L106.75,43.54L105.97,38.94L102.66,38.94L101.86,43.54L97.84,43.54Z"/>
	<path class="st4" d="M113.71,25.73L110.48,25.73L110.48,22.58L121.19,22.58L121.19,25.73L118.01,25.73L118.01,43.54L113.71,43.54Z"/>
	<path class="st5" d="M129.61,22.58L137.74,22.58L137.74,24.75L132.53,24.75L132.53,31.69L136.75,31.69L136.75,33.76L132.53,33.76L132.53,41.45L137.79,41.45L137.79,43.54L129.61,43.54Z"/>
	<path class="st5" d="M140.14,22.58L142.14,22.58L148.09,36.5L148.09,22.58L150.52,22.58L150.52,43.54L148.66,43.54L142.63,29.23L142.63,43.54L140.14,43.54Z"/>
	<path class="st5" d="M153.81,22.58L161.94,22.58L161.94,24.75L156.73,24.75L156.73,31.69L160.95,31.69L160.95,33.76L156.73,33.76L156.73,41.45L161.99,41.45L161.99,43.54L153.81,43.54Z"/>
	<path class="st5" d="M168.38,31.61C169.64,31.61 170.55,31.36 171.09,30.86C171.63,30.36 171.91,29.45 171.91,28.14C171.91,27.28 171.81,26.6 171.62,26.11C171.43,25.62 171.09,25.26 170.61,25.02C170.13,24.79 169.45,24.67 168.57,24.67L167.27,24.67L167.27,31.61ZM164.35,22.58L168.57,22.58C170.69,22.58 172.25,23.01 173.24,23.88C174.23,24.76 174.73,26.17 174.73,28.14C174.73,30.83 173.86,32.46 172.14,33.03L175.11,43.54L172.29,43.54L169.55,33.71L167.27,33.71L167.27,43.54L164.35,43.54Z"/>
	<path class="st5" d="M178.66,42C177.82,40.8 177.39,39.02 177.39,36.66L177.39,29.64C177.39,28.02 177.56,26.69 177.9,25.64C178.23,24.6 178.81,23.8 179.63,23.24C180.45,22.68 181.58,22.4 183.01,22.4C184.94,22.4 186.34,22.89 187.19,23.87C188.05,24.85 188.47,26.4 188.47,28.5L188.47,29.28L185.73,29.28L185.73,28.63C185.73,27.63 185.67,26.86 185.55,26.32C185.43,25.77 185.17,25.36 184.78,25.09C184.39,24.81 183.82,24.67 183.06,24.67C182.25,24.67 181.65,24.86 181.25,25.23C180.85,25.6 180.6,26.1 180.49,26.72C180.37,27.34 180.32,28.17 180.32,29.2L180.32,36.97C180.32,38.57 180.51,39.73 180.9,40.43C181.29,41.12 182.04,41.47 183.14,41.47C184.23,41.47 184.97,41.09 185.38,40.33C185.78,39.58 185.99,38.36 185.99,36.69L185.99,35.23L183.32,35.23L183.32,33.16L188.63,33.16L188.63,43.54L186.79,43.54L186.5,41.14C185.85,42.91 184.61,43.8 182.78,43.8C180.88,43.8 179.51,43.2 178.66,42"/>
	<path class="st5" d="M194.68,36.14L190.16,22.58L192.87,22.58L196.08,32.7L199.24,22.58L201.99,22.58L197.48,36.14L197.48,43.54L194.68,43.54Z"/>
</svg>